<svg width="971.672" height="840.6376" viewBox="0 0 971.672 840.6376" xmlns="http://www.w3.org/2000/svg"><g id="svgGroup" stroke-linecap="round" fill-rule="evenodd" font-size="9pt" stroke="#000" stroke-width="0.25mm" fill="none" style="stroke:#000;stroke-width:0.25mm;fill:none"><path d="M 277.2327 150.0001 L 345.7344 364.3188 L 345.7344 420.3188 L 691.7344 420.3188 L 691.7344 336.3188 L 817.8704 150 L 277.2327 150.0001 Z M 345.7344 420.3188 L 345.7344 476.3188 L 277.2327 690.6375 L 817.8704 690.6376 L 691.7344 504.3188 L 691.7344 420.3188 L 345.7344 420.3188 Z M 277.2327 150.0001 m -150 0 a 150 150 0 0 0 300 0 a 150 150 0 0 0 -300 0 z M 277.2327 690.6375 m -150 0 a 150 150 0 0 0 300 0 a 150 150 0 0 0 -300 0 z M 817.8704 150 m -150 0 a 150 150 0 0 0 300 0 a 150 150 0 0 0 -300 0 z M 817.8704 690.6376 m -150 0 a 150 150 0 0 0 300 0 a 150 150 0 0 0 -300 0 z M 705.7344 336.3188 A 14 14 0 0 0 691.7344 322.3188 L 461.0677 322.3188 A 14 14 0 0 0 447.0677 336.3188 A 14 14 0 0 0 461.0677 350.3188 L 691.7344 350.3188 A 14 14 0 0 0 705.7344 336.3188 Z M 705.7344 504.3188 A 14 14 0 0 0 691.7344 490.3188 L 461.0677 490.3188 A 14 14 0 0 0 447.0677 504.3188 A 14 14 0 0 0 461.0677 518.3188 L 691.7344 518.3188 A 14 14 0 0 0 705.7344 504.3188 Z M 331.7344 364.3188 A 14 14 0 0 0 345.7344 378.3188 L 576.401 378.3188 A 14 14 0 0 0 590.401 364.3188 A 14 14 0 0 0 576.401 350.3188 L 345.7344 350.3188 A 14 14 0 0 0 331.7344 364.3188 Z M 331.7344 476.3188 A 14 14 0 0 0 345.7344 490.3188 L 576.401 490.3188 A 14 14 0 0 0 590.401 476.3188 A 14 14 0 0 0 576.401 462.3188 L 345.7344 462.3188 A 14 14 0 0 0 331.7344 476.3188 Z M 349.9967 377.6542 A 14 14 0 0 0 359.0698 360.0565 L 290.5681 145.7377 A 14 14 0 0 0 272.9704 136.6647 A 14 14 0 0 0 263.8973 154.2624 L 332.399 368.5811 A 14 14 0 0 0 349.9967 377.6542 Z M 349.9967 462.9834 A 14 14 0 0 0 332.399 472.0565 L 263.8973 686.3752 A 14 14 0 0 0 272.9704 703.9729 A 14 14 0 0 0 290.5681 694.8999 L 359.0698 480.5811 A 14 14 0 0 0 349.9967 462.9834 Z M 683.8859 347.912 A 14 14 0 0 0 703.3275 344.1673 L 829.4636 157.8485 A 14 14 0 0 0 825.7189 138.4068 A 14 14 0 0 0 806.2773 142.1515 L 680.1412 328.4703 A 14 14 0 0 0 683.8859 347.912 Z M 683.8859 492.7256 A 14 14 0 0 0 680.1412 512.1673 L 806.2773 698.4861 A 14 14 0 0 0 825.7189 702.2308 A 14 14 0 0 0 829.4636 682.7891 L 703.3275 496.4703 A 14 14 0 0 0 683.8859 492.7256 Z M 117.2344 415.7719 L 131.9063 415.7719 L 131.9063 420.3188 L 110.4375 420.3188 L 110.4375 415.0688 A 100.6743 100.6743 0 0 1 110.9004 414.6601 Q 111.42 414.2039 112.1142 413.6044 A 354.578 354.578 0 0 1 112.7812 413.0297 A 114.7882 114.7882 0 0 0 114.3398 411.6645 A 149.13 149.13 0 0 0 116.0156 410.1469 A 77.8094 77.8094 0 0 0 119.2676 406.9732 A 85.2359 85.2359 0 0 0 119.4844 406.7485 A 45.366 45.366 0 0 0 122.2863 403.5544 A 41.0571 41.0571 0 0 0 122.6484 403.0922 A 26.2256 26.2256 0 0 0 124.0937 401.0315 A 20.7529 20.7529 0 0 0 124.9922 399.4594 Q 125.8567 397.7747 125.9036 396.2577 A 5.6132 5.6132 0 0 0 125.9062 396.0844 Q 125.9063 394.6957 125.4864 393.6932 A 4.2086 4.2086 0 0 0 125.3203 393.3422 A 5.9423 5.9423 0 0 0 124.4445 392.0944 A 5.2103 5.2103 0 0 0 123.8438 391.5375 Q 122.9531 390.8344 121.8984 390.5532 Q 120.8438 390.2719 119.9063 390.2719 A 47.4143 47.4143 0 0 0 118.7242 390.2858 Q 117.6672 390.3122 116.8828 390.3891 Q 115.6875 390.5063 114.7969 390.7172 A 7.2572 7.2572 0 0 0 113.8542 391.0065 A 5.8952 5.8952 0 0 0 113.2031 391.3032 A 36.9803 36.9803 0 0 0 112.4766 391.7016 A 46.2034 46.2034 0 0 0 111.7031 392.1469 L 110.0625 388.6782 A 8.0242 8.0242 0 0 1 111.0714 387.921 A 10.925 10.925 0 0 1 112.1484 387.3188 Q 113.3906 386.7094 114.7266 386.3344 Q 116.0625 385.9594 117.375 385.7485 A 17.2488 17.2488 0 0 1 118.7734 385.5794 A 13.419 13.419 0 0 1 119.8125 385.5375 Q 122.5841 385.5375 124.6382 386.3521 A 9.3321 9.3321 0 0 1 125.0391 386.5219 A 12.1617 12.1617 0 0 1 127.1367 387.72 A 9.7919 9.7919 0 0 1 128.625 389.0297 Q 130.0313 390.5532 130.7109 392.4282 A 11.6434 11.6434 0 0 1 131.2605 394.4931 A 9.4447 9.4447 0 0 1 131.3906 396.0375 A 9.2583 9.2583 0 0 1 131.0309 398.547 A 11.6285 11.6285 0 0 1 130.5937 399.811 Q 129.7969 401.7563 128.4844 403.6547 A 39.7295 39.7295 0 0 1 125.6016 407.3344 A 83.6623 83.6623 0 0 1 122.6572 410.5095 A 76.5088 76.5088 0 0 1 122.4609 410.7094 A 110.6641 110.6641 0 0 1 120.9375 412.227 A 85.9755 85.9755 0 0 1 119.5078 413.5922 Q 118.1584 414.8501 117.2777 415.7286 A 48.7048 48.7048 0 0 0 117.2344 415.7719 Z M 148.3125 418.9125 L 149.5781 414.8813 Q 150 415.1157 150.375 415.3969 A 2.6659 2.6659 0 0 0 150.6716 415.5875 Q 150.8316 415.6772 151.027 415.7643 A 6.7819 6.7819 0 0 0 151.4531 415.936 A 5.3641 5.3641 0 0 0 151.9475 416.088 Q 152.4668 416.223 153.1824 416.3253 A 18.509 18.509 0 0 0 153.4219 416.3579 A 15.7687 15.7687 0 0 0 154.3044 416.4444 Q 155.2253 416.511 156.4734 416.5204 A 55.5839 55.5839 0 0 0 156.8906 416.5219 Q 159.1455 416.5219 160.603 415.6675 A 4.7124 4.7124 0 0 0 161.7188 414.7641 A 6.0901 6.0901 0 0 0 163.2565 411.3042 A 8.1701 8.1701 0 0 0 163.3125 410.3344 A 7.3059 7.3059 0 0 0 163.0141 408.2041 A 6.0068 6.0068 0 0 0 161.8594 406.0688 A 4.6697 4.6697 0 0 0 159.2931 404.5212 A 7.2641 7.2641 0 0 0 157.5938 404.3344 L 152.8125 404.3344 L 152.8594 404.3344 L 152.8125 400.5375 L 156 400.5375 Q 157.0313 400.5375 158.0859 400.4907 A 4.8912 4.8912 0 0 0 160.0781 399.975 Q 161.0156 399.5063 161.625 398.3813 Q 162.2344 397.2563 162.2344 395.1469 A 11.3815 11.3815 0 0 0 162.1683 393.946 A 13.5738 13.5738 0 0 0 162.0938 393.3657 A 3.575 3.575 0 0 0 161.4346 391.7819 A 4.2652 4.2652 0 0 0 161.3203 391.6313 A 3.6616 3.6616 0 0 0 160.5119 390.8905 Q 160.144 390.6387 159.6853 390.4342 A 6.586 6.586 0 0 0 159.4687 390.3422 Q 158.25 389.85 156.0938 389.85 A 19.2208 19.2208 0 0 0 154.8308 389.889 Q 153.5347 389.9746 152.6484 390.2485 A 100.0969 100.0969 0 0 0 152.0435 390.4375 Q 151.4604 390.6217 151.0455 390.7624 A 22.6884 22.6884 0 0 0 150.7031 390.8813 L 149.0625 386.6625 A 33.0697 33.0697 0 0 1 149.9821 386.4099 Q 150.3968 386.3018 150.8642 386.1892 A 68.7085 68.7085 0 0 1 151.8516 385.9594 A 11.8071 11.8071 0 0 1 152.9697 385.7698 Q 154.448 385.5844 156.6563 385.5844 A 16.1305 16.1305 0 0 1 159.9556 385.9134 A 14.5403 14.5403 0 0 1 160.8281 386.1235 A 9.8658 9.8658 0 0 1 163.3533 387.1944 A 8.9109 8.9109 0 0 1 164.2734 387.8344 A 8.205 8.205 0 0 1 166.4492 390.4974 A 9.6242 9.6242 0 0 1 166.6172 390.8344 A 8.7186 8.7186 0 0 1 167.3184 393.0987 A 12.0376 12.0376 0 0 1 167.4844 395.1469 A 7.1133 7.1133 0 0 1 167.3026 396.7816 A 6.0619 6.0619 0 0 1 166.9688 397.7954 A 7.9175 7.9175 0 0 1 166.0822 399.3562 A 7.0459 7.0459 0 0 1 165.6563 399.8813 A 7.5993 7.5993 0 0 1 163.875 401.3579 A 8.1541 8.1541 0 0 1 163.0984 401.7682 Q 162.6898 401.9551 162.3085 402.0646 A 4.428 4.428 0 0 1 162.0469 402.1313 Q 163.125 402.2719 164.2734 402.8344 A 7.2236 7.2236 0 0 1 165.8998 403.9383 A 8.674 8.674 0 0 1 166.4062 404.4282 A 8.2153 8.2153 0 0 1 167.6047 406.0566 A 10.0618 10.0618 0 0 1 168.0469 406.936 A 7.4909 7.4909 0 0 1 168.603 408.9009 A 9.877 9.877 0 0 1 168.7031 410.3344 A 13.5843 13.5843 0 0 1 168.5753 412.2479 Q 168.4084 413.42 168.0234 414.3891 A 10.6488 10.6488 0 0 1 167.2825 415.9091 A 7.9871 7.9871 0 0 1 166.3125 417.225 A 8.5374 8.5374 0 0 1 163.9922 419.0297 A 13.4232 13.4232 0 0 1 162.5642 419.6831 A 10.8163 10.8163 0 0 1 161.4844 420.0376 Q 160.2656 420.3657 159.2578 420.4594 Q 158.25 420.5532 157.6875 420.5532 A 46.8487 46.8487 0 0 1 155.3891 420.5005 Q 153.0396 420.3847 151.4766 420.0141 A 25.5305 25.5305 0 0 1 150.4263 419.7431 Q 149.4252 419.4601 148.7971 419.1709 A 4.21 4.21 0 0 1 148.3125 418.9125 Z M 960.4219 390.1313 L 960.4219 385.5375 A 14.2683 14.2683 0 0 1 962.9377 385.8754 A 10.6304 10.6304 0 0 1 965.3906 386.7563 A 10.3831 10.3831 0 0 1 968.9297 389.686 A 11.6899 11.6899 0 0 1 970.7361 393.0941 A 13.8875 13.8875 0 0 1 971.0156 394.0219 A 19.6542 19.6542 0 0 1 971.5796 397.3105 A 24.349 24.349 0 0 1 971.6719 399.4594 Q 971.6719 403.9127 971.0891 407.2734 A 25.8187 25.8187 0 0 1 970.5469 409.725 Q 969.686 412.8459 968.427 414.9922 A 13.1859 13.1859 0 0 1 967.6172 416.2172 A 12.5935 12.5935 0 0 1 966.0813 417.9388 Q 964.908 419.0217 963.5859 419.5922 A 11.7351 11.7351 0 0 1 960.7428 420.4291 A 10.2689 10.2689 0 0 1 959.1563 420.5532 A 34.8872 34.8872 0 0 1 956.0032 420.4158 A 29.0591 29.0591 0 0 1 954.2344 420.2016 Q 951.9375 419.85 950.25 418.725 L 952.0781 414.8344 Q 953.3906 415.6782 954.9609 415.9125 A 19.7954 19.7954 0 0 0 956.4381 416.0728 Q 957.2001 416.1284 958.058 416.1423 A 35.96 35.96 0 0 0 958.6406 416.1469 A 7.3552 7.3552 0 0 0 960.3291 415.9615 A 5.7055 5.7055 0 0 0 961.9688 415.3032 A 7.1769 7.1769 0 0 0 964.2891 413.0766 Q 965.2031 411.6938 965.6719 409.8891 Q 966.1406 408.0844 966.1406 406.1157 Q 966.0938 406.1625 965.9531 406.1625 A 0.6621 0.6621 0 0 0 965.8924 406.1651 Q 965.8327 406.1706 965.7968 406.188 A 0.1131 0.1131 0 0 0 965.7656 406.2094 A 3.3987 3.3987 0 0 1 965.1143 407.0923 Q 964.796 407.4097 964.3701 407.6996 A 7.2472 7.2472 0 0 1 963.8203 408.0375 A 8.0645 8.0645 0 0 1 962.0414 408.7561 A 10.8671 10.8671 0 0 1 960.4219 409.0688 L 960.4219 404.9438 A 6.5531 6.5531 0 0 0 962.2588 404.4824 A 5.9999 5.9999 0 0 0 962.8125 404.2172 Q 963.8906 403.6313 964.6641 402.6938 A 7.0809 7.0809 0 0 0 965.6011 401.2016 A 8.6231 8.6231 0 0 0 965.9063 400.4672 A 7.8888 7.8888 0 0 0 966.3585 398.2333 A 9.2392 9.2392 0 0 0 966.375 397.6782 Q 966.375 396.1313 965.9063 394.8188 A 8.5852 8.5852 0 0 0 965.1806 393.2718 A 7.3516 7.3516 0 0 0 964.6641 392.5219 Q 963.8906 391.5375 962.7891 390.9047 A 6.0419 6.0419 0 0 0 960.4219 390.1313 Z M 90.9375 420.3188 L 85.6875 420.3188 L 97.6875 390.3657 L 82.6406 390.3657 L 82.6406 385.7719 L 104.3438 385.7719 L 90.9375 420.3188 Z M 808.9219 419.8969 L 815.3906 428.2407 L 809.2031 428.2407 L 806.0625 422.85 L 806.0625 415.9125 A 7.486 7.486 0 0 0 809.0391 414.9047 A 6.8944 6.8944 0 0 0 810.6981 413.5102 A 8.9221 8.9221 0 0 0 811.4531 412.5141 Q 812.3474 411.1524 812.9421 409.1913 A 19.2531 19.2531 0 0 0 813.1172 408.5766 Q 813.6485 406.5891 813.7668 403.9242 A 34.486 34.486 0 0 0 813.7969 402.8813 A 30.9407 30.9407 0 0 0 813.6621 400.3358 Q 813.5458 399.1366 813.3318 398.0975 A 16.1096 16.1096 0 0 0 813.1172 397.186 A 16.5008 16.5008 0 0 0 812.5082 395.3305 Q 812.131 394.3857 811.6625 393.6133 A 9.3641 9.3641 0 0 0 811.4297 393.2485 A 8.8094 8.8094 0 0 0 810.3025 391.875 A 6.8503 6.8503 0 0 0 808.9922 390.8579 A 6.9065 6.9065 0 0 0 806.0625 389.8969 L 806.0625 385.2563 Q 808.9219 385.3969 811.3828 386.6157 A 12.7135 12.7135 0 0 1 815.6484 390.061 A 15.1118 15.1118 0 0 1 817.5815 393.1844 A 19.5362 19.5362 0 0 1 818.4844 395.4985 A 20.7399 20.7399 0 0 1 819.2814 399.1232 Q 819.512 400.8655 819.5156 402.8192 A 33.6558 33.6558 0 0 1 819.5156 402.8813 A 26.0669 26.0669 0 0 1 819.2775 406.4812 A 20.3744 20.3744 0 0 1 818.6719 409.35 A 20.4221 20.4221 0 0 1 817.4926 412.4754 A 16.6462 16.6462 0 0 1 816.375 414.4594 A 14.6981 14.6981 0 0 1 814.3208 416.9551 A 12.6933 12.6933 0 0 1 813 418.0688 A 10.5892 10.5892 0 0 1 810.2792 419.5257 A 9.5544 9.5544 0 0 1 808.9219 419.8969 Z M 804.1406 385.2563 L 804.1406 389.9438 Q 802.5469 390.1313 801.1641 390.9282 A 6.7549 6.7549 0 0 0 799.5005 392.2971 A 8.709 8.709 0 0 0 798.75 393.2719 Q 797.8597 394.6073 797.2664 396.5715 A 19.1756 19.1756 0 0 0 797.0859 397.2094 Q 796.5421 399.2639 796.431 401.9761 A 33.985 33.985 0 0 0 796.4062 402.8813 A 30.9407 30.9407 0 0 0 796.541 405.4268 Q 796.6573 406.626 796.8713 407.6651 A 16.1096 16.1096 0 0 0 797.0859 408.5766 A 16.6658 16.6658 0 0 0 797.7204 410.4999 Q 798.1802 411.6411 798.7734 412.5375 A 8.8714 8.8714 0 0 0 799.8343 413.8617 A 6.7688 6.7688 0 0 0 801.2109 414.9516 A 6.9065 6.9065 0 0 0 804.1406 415.9125 L 804.1406 420.4594 L 803.2969 420.4594 Q 800.5781 420.1313 798.2578 418.8657 A 12.6472 12.6472 0 0 1 794.25 415.3969 A 14.8911 14.8911 0 0 1 792.4719 412.3637 A 19.3381 19.3381 0 0 1 791.625 410.0532 A 21.6914 21.6914 0 0 1 790.8935 406.4649 A 29.7117 29.7117 0 0 1 790.6875 402.8813 Q 790.6875 398.7787 791.6621 395.6054 A 18.223 18.223 0 0 1 791.6953 395.4985 A 18.4198 18.4198 0 0 1 792.9465 392.4489 A 14.4199 14.4199 0 0 1 794.5078 390.061 A 12.3902 12.3902 0 0 1 798.7969 386.6391 A 14.3747 14.3747 0 0 1 804.1406 385.2563 Z M 882.3281 418.2094 L 882.3281 413.5219 A 11.7161 11.7161 0 0 0 882.8698 413.8482 Q 883.116 413.9883 883.3966 414.1352 A 23.7972 23.7972 0 0 0 883.9922 414.436 A 29.4956 29.4956 0 0 0 885.7072 415.2048 A 33.0505 33.0505 0 0 0 886.125 415.3735 A 16.0532 16.0532 0 0 0 888.4922 416.1 A 11.8702 11.8702 0 0 0 889.7657 416.3195 A 9.2342 9.2342 0 0 0 890.8125 416.3813 Q 894.2813 416.3813 896.25 414.6 Q 898.2188 412.8188 898.2188 409.1157 A 6.7156 6.7156 0 0 0 897.9794 407.2744 A 4.9737 4.9737 0 0 0 896.5078 404.8969 A 5.8598 5.8598 0 0 0 893.6568 403.5011 A 8.3453 8.3453 0 0 0 892.0313 403.35 A 13.64 13.64 0 0 0 890.25 403.4672 A 11.3601 11.3601 0 0 0 888.8662 403.7346 A 10.1338 10.1338 0 0 0 888.5625 403.8188 L 889.125 399.1782 A 14.7736 14.7736 0 0 1 890.5652 398.966 A 17.1964 17.1964 0 0 1 891.1172 398.9204 A 49.7777 49.7777 0 0 1 891.6138 398.8896 Q 892.3125 398.85 892.7344 398.85 A 11.7679 11.7679 0 0 1 895.2532 399.1094 A 9.6047 9.6047 0 0 1 897.1172 399.7172 A 10.3144 10.3144 0 0 1 899.7875 401.4195 A 9.5536 9.5536 0 0 1 900.4219 402.0375 A 10.0394 10.0394 0 0 1 902.4844 405.3188 Q 903.1875 407.1469 903.1875 409.1157 Q 903.1875 411.7489 902.5935 413.6451 A 8.4449 8.4449 0 0 1 901.9219 415.2329 A 11.0642 11.0642 0 0 1 900.6066 417.1273 A 8.511 8.511 0 0 1 898.8047 418.7016 A 10.4052 10.4052 0 0 1 896.0583 419.9719 A 9.4707 9.4707 0 0 1 894.9375 420.225 Q 893.3943 420.4763 892.1808 420.5352 A 14.7119 14.7119 0 0 1 891.4687 420.5532 A 17.8012 17.8012 0 0 1 888.9717 420.383 A 15.9342 15.9342 0 0 1 888.4219 420.2954 A 20.8 20.8 0 0 1 886.8687 419.9608 A 16.3978 16.3978 0 0 1 885.7734 419.6391 A 28.2328 28.2328 0 0 1 884.7859 419.2905 Q 884.3378 419.1224 883.944 418.9543 A 16.2405 16.2405 0 0 1 883.6875 418.8422 Q 882.7969 418.4438 882.3281 418.2094 Z M 910.6875 418.2094 L 910.6875 413.5219 A 11.7161 11.7161 0 0 0 911.2291 413.8482 Q 911.4754 413.9883 911.756 414.1352 A 23.7972 23.7972 0 0 0 912.3516 414.436 A 29.4956 29.4956 0 0 0 914.0666 415.2048 A 33.0505 33.0505 0 0 0 914.4844 415.3735 A 16.0532 16.0532 0 0 0 916.8516 416.1 A 11.8702 11.8702 0 0 0 918.1251 416.3195 A 9.2342 9.2342 0 0 0 919.1719 416.3813 Q 922.6406 416.3813 924.6094 414.6 Q 926.5781 412.8188 926.5781 409.1157 A 6.7156 6.7156 0 0 0 926.3388 407.2744 A 4.9737 4.9737 0 0 0 924.8672 404.8969 A 5.8598 5.8598 0 0 0 922.0161 403.5011 A 8.3453 8.3453 0 0 0 920.3906 403.35 A 13.64 13.64 0 0 0 918.6094 403.4672 A 11.3601 11.3601 0 0 0 917.2256 403.7346 A 10.1338 10.1338 0 0 0 916.9219 403.8188 L 917.4844 399.1782 A 14.7736 14.7736 0 0 1 918.9245 398.966 A 17.1964 17.1964 0 0 1 919.4766 398.9204 A 49.7777 49.7777 0 0 1 919.9731 398.8896 Q 920.6719 398.85 921.0938 398.85 A 11.7679 11.7679 0 0 1 923.6126 399.1094 A 9.6047 9.6047 0 0 1 925.4766 399.7172 A 10.3144 10.3144 0 0 1 928.1469 401.4195 A 9.5536 9.5536 0 0 1 928.7813 402.0375 A 10.0394 10.0394 0 0 1 930.8437 405.3188 Q 931.5469 407.1469 931.5469 409.1157 Q 931.5469 411.7489 930.9529 413.6451 A 8.4449 8.4449 0 0 1 930.2812 415.2329 A 11.0642 11.0642 0 0 1 928.966 417.1273 A 8.511 8.511 0 0 1 927.1641 418.7016 A 10.4052 10.4052 0 0 1 924.4177 419.9719 A 9.4707 9.4707 0 0 1 923.2969 420.225 Q 921.7537 420.4763 920.5402 420.5352 A 14.7119 14.7119 0 0 1 919.8281 420.5532 A 17.8012 17.8012 0 0 1 917.3311 420.383 A 15.9342 15.9342 0 0 1 916.7813 420.2954 A 20.8 20.8 0 0 1 915.2281 419.9608 A 16.3978 16.3978 0 0 1 914.1328 419.6391 A 28.2328 28.2328 0 0 1 913.1452 419.2905 Q 912.6972 419.1224 912.3034 418.9543 A 16.2405 16.2405 0 0 1 912.0469 418.8422 Q 911.1563 418.4438 910.6875 418.2094 Z M 472.5625 391.0454 L 484.0469 391.0454 L 484.0469 393.3188 L 475.8203 405.6704 L 475.3516 406.0454 L 484.0469 406.0454 L 484.0469 408.3188 L 472.5625 408.3188 L 472.5625 406.0454 L 480.7891 393.6938 L 481.2813 393.3188 L 472.5625 393.3188 L 472.5625 391.0454 Z M 0 420.3188 L 0 385.7719 L 5.625 385.7719 L 5.625 420.3188 L 0 420.3188 Z M 7.5469 385.7719 L 9.9375 385.7719 A 13.9823 13.9823 0 0 1 14.2969 386.475 Q 16.4531 387.1782 18.1641 388.5844 Q 19.875 389.9907 20.9297 391.9829 A 9.1372 9.1372 0 0 1 21.9473 395.5451 A 11.0953 11.0953 0 0 1 21.9844 396.4594 A 13.3835 13.3835 0 0 1 21.7026 399.2568 A 11.0689 11.0689 0 0 1 21.0938 401.2172 A 10.2506 10.2506 0 0 1 19.3844 404.0087 A 9.4837 9.4837 0 0 1 18.6094 404.8032 Q 17.0156 406.2563 14.7656 407.0532 A 13.89 13.89 0 0 1 11.4905 407.7683 A 17.124 17.124 0 0 1 9.7969 407.85 L 7.5469 407.85 L 7.5469 403.725 L 10.7813 403.725 A 6.152 6.152 0 0 0 12.8203 403.3735 A 5.0505 5.0505 0 0 0 14.4042 402.4632 A 5.9523 5.9523 0 0 0 14.6719 402.225 Q 15.5156 401.4282 16.0313 399.9985 Q 16.4491 398.84 16.5283 397.2353 A 15.7361 15.7361 0 0 0 16.5469 396.4594 Q 16.5469 395.7343 16.3738 394.8188 A 13.6498 13.6498 0 0 0 16.3125 394.5141 Q 16.0781 393.4125 15.3516 392.4047 Q 14.625 391.3969 13.3125 390.7172 A 5.3912 5.3912 0 0 0 12.1068 390.2772 Q 11.5233 390.1349 10.8349 390.0771 A 11.8607 11.8607 0 0 0 9.8438 390.0375 L 7.5469 390.0375 L 7.5469 385.7719 Z M 886.7344 403.1625 L 886.5 405.0375 L 882.0938 405.0375 A 5.2168 5.2168 0 0 1 882.0989 404.8257 Q 882.1118 404.5157 882.1569 403.9803 A 52.8568 52.8568 0 0 1 882.1875 403.6313 A 249.1849 249.1849 0 0 1 882.2644 402.8018 Q 882.334 402.0639 882.4219 401.1704 A 220.1526 220.1526 0 0 1 882.5742 399.6762 A 282.7697 282.7697 0 0 1 882.75 398.0532 Q 882.9375 396.3657 883.125 394.6313 Q 883.5938 390.6 884.2031 385.7719 L 901.3125 385.7719 L 901.3125 390.3657 L 888.4219 390.3657 Q 887.9531 393.8344 887.6719 395.7563 A 311.9386 311.9386 0 0 0 887.5415 396.6557 Q 887.3613 397.9125 887.2734 398.6157 Q 887.1638 399.4929 887.1362 399.734 A 9.5322 9.5322 0 0 0 887.1328 399.7641 A 13.8315 13.8315 0 0 0 887.1248 399.8374 Q 887.1094 399.9838 887.1094 400.0219 L 886.7344 403.1625 Z M 915.0938 403.1625 L 914.8594 405.0375 L 910.4531 405.0375 A 5.2168 5.2168 0 0 1 910.4583 404.8257 Q 910.4712 404.5157 910.5162 403.9803 A 52.8568 52.8568 0 0 1 910.5469 403.6313 A 249.1849 249.1849 0 0 1 910.6238 402.8018 Q 910.6934 402.0639 910.7813 401.1704 A 220.1526 220.1526 0 0 1 910.9336 399.6762 A 282.7697 282.7697 0 0 1 911.1094 398.0532 Q 911.2969 396.3657 911.4844 394.6313 Q 911.9531 390.6 912.5625 385.7719 L 929.6719 385.7719 L 929.6719 390.3657 L 916.7813 390.3657 Q 916.3125 393.8344 916.0313 395.7563 A 311.9386 311.9386 0 0 0 915.9009 396.6557 Q 915.7207 397.9125 915.6328 398.6157 Q 915.5232 399.4929 915.4956 399.734 A 9.5322 9.5322 0 0 0 915.4922 399.7641 A 13.8315 13.8315 0 0 0 915.4842 399.8374 Q 915.4688 399.9838 915.4688 400.0219 L 915.0938 403.1625 Z M 788.4375 322.0454 L 795.7734 322.0454 L 795.7734 324.3188 L 785.0391 324.3188 L 785.0391 321.6938 A 50.3369 50.3369 0 0 1 785.2705 321.4895 Q 785.5303 321.2614 785.8774 320.9616 A 177.3418 177.3418 0 0 1 786.2109 320.6743 A 57.3952 57.3952 0 0 0 786.9902 319.9917 A 74.5673 74.5673 0 0 0 787.8281 319.2329 A 38.9047 38.9047 0 0 0 789.4541 317.646 A 42.6179 42.6179 0 0 0 789.5625 317.5336 A 22.6829 22.6829 0 0 0 790.9634 315.9366 A 20.5258 20.5258 0 0 0 791.1445 315.7055 A 13.1128 13.1128 0 0 0 791.8672 314.6751 A 10.3765 10.3765 0 0 0 792.3164 313.8891 Q 792.7734 312.9985 792.7734 312.2016 A 3.7985 3.7985 0 0 0 792.7287 311.6019 Q 792.6766 311.2759 792.5635 311.006 A 2.1043 2.1043 0 0 0 792.4805 310.8305 A 2.9712 2.9712 0 0 0 792.0426 310.2066 A 2.6052 2.6052 0 0 0 791.7422 309.9282 Q 791.2969 309.5766 790.7695 309.436 A 4.2878 4.2878 0 0 0 790.1948 309.3223 A 3.4117 3.4117 0 0 0 789.7734 309.2954 A 23.7078 23.7078 0 0 0 789.1824 309.3023 Q 788.6539 309.3155 788.2617 309.354 A 9.942 9.942 0 0 0 787.7679 309.4142 Q 787.4692 309.4587 787.2188 309.518 A 3.6286 3.6286 0 0 0 786.7474 309.6626 A 2.9475 2.9475 0 0 0 786.4219 309.811 A 18.4901 18.4901 0 0 0 786.0586 310.0102 A 23.1017 23.1017 0 0 0 785.6719 310.2329 L 784.8516 308.4985 A 4.0121 4.0121 0 0 1 785.356 308.1199 A 5.4625 5.4625 0 0 1 785.8945 307.8188 A 7.5591 7.5591 0 0 1 787.1836 307.3266 A 11.8657 11.8657 0 0 1 788.5078 307.0336 A 8.6244 8.6244 0 0 1 789.207 306.9491 A 6.7095 6.7095 0 0 1 789.7266 306.9282 A 7.8989 7.8989 0 0 1 790.9348 307.0158 Q 791.5887 307.1171 792.1394 307.3355 A 4.6661 4.6661 0 0 1 792.3398 307.4204 A 6.0809 6.0809 0 0 1 793.3887 308.0194 A 4.8959 4.8959 0 0 1 794.1328 308.6743 Q 794.8359 309.436 795.1758 310.3735 Q 795.5156 311.311 795.5156 312.1782 A 4.6291 4.6291 0 0 1 795.3358 313.4329 A 5.8142 5.8142 0 0 1 795.1172 314.0649 A 9.7975 9.7975 0 0 1 794.3745 315.5107 A 11.3458 11.3458 0 0 1 794.0625 315.9868 A 19.8647 19.8647 0 0 1 792.6211 317.8266 A 41.8312 41.8312 0 0 1 791.1489 319.4141 A 38.2336 38.2336 0 0 1 791.0508 319.5141 A 55.332 55.332 0 0 1 790.2891 320.2729 A 42.9881 42.9881 0 0 1 789.5742 320.9555 A 71.1656 71.1656 0 0 0 789.2439 321.2653 Q 788.7867 321.697 788.4592 322.0237 A 24.534 24.534 0 0 0 788.4375 322.0454 Z M 802.8281 322.0454 L 810.1641 322.0454 L 810.1641 324.3188 L 799.4297 324.3188 L 799.4297 321.6938 A 50.3369 50.3369 0 0 1 799.6611 321.4895 Q 799.921 321.2614 800.268 320.9616 A 177.3418 177.3418 0 0 1 800.6016 320.6743 A 57.3952 57.3952 0 0 0 801.3809 319.9917 A 74.5673 74.5673 0 0 0 802.2187 319.2329 A 38.9047 38.9047 0 0 0 803.8447 317.646 A 42.6179 42.6179 0 0 0 803.9531 317.5336 A 22.6829 22.6829 0 0 0 805.3541 315.9366 A 20.5258 20.5258 0 0 0 805.5352 315.7055 A 13.1128 13.1128 0 0 0 806.2578 314.6751 A 10.3765 10.3765 0 0 0 806.707 313.8891 Q 807.1641 312.9985 807.1641 312.2016 A 3.7985 3.7985 0 0 0 807.1194 311.6019 Q 807.0672 311.2759 806.9541 311.006 A 2.1043 2.1043 0 0 0 806.8711 310.8305 A 2.9712 2.9712 0 0 0 806.4332 310.2066 A 2.6052 2.6052 0 0 0 806.1328 309.9282 Q 805.6875 309.5766 805.1602 309.436 A 4.2878 4.2878 0 0 0 804.5854 309.3223 A 3.4117 3.4117 0 0 0 804.1641 309.2954 A 23.7078 23.7078 0 0 0 803.573 309.3023 Q 803.0446 309.3155 802.6523 309.354 A 9.942 9.942 0 0 0 802.1586 309.4142 Q 801.8599 309.4587 801.6094 309.518 A 3.6286 3.6286 0 0 0 801.1381 309.6626 A 2.9475 2.9475 0 0 0 800.8125 309.811 A 18.4901 18.4901 0 0 0 800.4492 310.0102 A 23.1017 23.1017 0 0 0 800.0625 310.2329 L 799.2422 308.4985 A 4.0121 4.0121 0 0 1 799.7467 308.1199 A 5.4625 5.4625 0 0 1 800.2852 307.8188 A 7.5591 7.5591 0 0 1 801.5742 307.3266 A 11.8657 11.8657 0 0 1 802.8984 307.0336 A 8.6244 8.6244 0 0 1 803.5976 306.9491 A 6.7095 6.7095 0 0 1 804.1172 306.9282 A 7.8989 7.8989 0 0 1 805.3254 307.0158 Q 805.9793 307.1171 806.53 307.3355 A 4.6661 4.6661 0 0 1 806.7305 307.4204 A 6.0809 6.0809 0 0 1 807.7793 308.0194 A 4.8959 4.8959 0 0 1 808.5234 308.6743 Q 809.2266 309.436 809.5664 310.3735 Q 809.9063 311.311 809.9063 312.1782 A 4.6291 4.6291 0 0 1 809.7264 313.4329 A 5.8142 5.8142 0 0 1 809.5078 314.0649 A 9.7975 9.7975 0 0 1 808.7651 315.5107 A 11.3458 11.3458 0 0 1 808.4531 315.9868 A 19.8647 19.8647 0 0 1 807.0117 317.8266 A 41.8312 41.8312 0 0 1 805.5396 319.4141 A 38.2336 38.2336 0 0 1 805.4414 319.5141 A 55.332 55.332 0 0 1 804.6797 320.2729 A 42.9881 42.9881 0 0 1 803.9648 320.9555 A 71.1656 71.1656 0 0 0 803.6345 321.2653 Q 803.1773 321.697 802.8498 322.0237 A 24.534 24.534 0 0 0 802.8281 322.0454 Z M 515.3828 407.6157 L 516.0156 405.6 A 3.4784 3.4784 0 0 1 516.4141 405.8579 A 1.3329 1.3329 0 0 0 516.5624 405.9532 Q 516.7224 406.0428 516.9531 406.1274 Q 517.3047 406.2563 517.9375 406.3383 A 7.8844 7.8844 0 0 0 518.3788 406.3816 Q 518.8392 406.4149 519.4633 406.4196 A 27.7921 27.7921 0 0 0 519.6719 406.4204 A 4.7229 4.7229 0 0 0 520.5919 406.3367 Q 521.1219 406.2313 521.5281 405.9932 A 2.3562 2.3562 0 0 0 522.0859 405.5415 A 3.045 3.045 0 0 0 522.8548 403.8115 A 4.0851 4.0851 0 0 0 522.8828 403.3266 A 3.653 3.653 0 0 0 522.7336 402.2614 A 3.0034 3.0034 0 0 0 522.1563 401.1938 A 2.3349 2.3349 0 0 0 520.8731 400.42 A 3.632 3.632 0 0 0 520.0234 400.3266 L 517.6328 400.3266 L 517.6563 400.3266 L 517.6328 398.4282 L 519.2266 398.4282 A 23.4895 23.4895 0 0 0 520.2695 398.4047 A 2.4456 2.4456 0 0 0 521.2656 398.1469 A 1.6212 1.6212 0 0 0 521.7846 397.7292 A 2.2797 2.2797 0 0 0 522.0391 397.35 A 2.0882 2.0882 0 0 0 522.2125 396.9052 Q 522.3353 396.4559 522.3432 395.8212 A 7.0867 7.0867 0 0 0 522.3437 395.7329 A 5.6907 5.6907 0 0 0 522.3107 395.1324 A 6.7869 6.7869 0 0 0 522.2734 394.8422 A 1.7875 1.7875 0 0 0 521.9439 394.0504 A 2.1324 2.1324 0 0 0 521.8867 393.975 Q 521.5703 393.5766 520.9609 393.3305 Q 520.3642 393.0895 519.3178 393.0845 A 9.313 9.313 0 0 0 519.2734 393.0844 Q 518.1953 393.0844 517.5508 393.2836 Q 517.0573 393.4362 516.7493 393.5406 A 11.3421 11.3421 0 0 0 516.5781 393.6 L 515.7578 391.4907 Q 516.1445 391.3779 516.6586 391.254 A 34.3546 34.3546 0 0 1 517.1523 391.1391 A 5.9036 5.9036 0 0 1 517.7114 391.0443 Q 518.4506 390.9516 519.5547 390.9516 A 8.0653 8.0653 0 0 1 521.2044 391.1161 A 7.2701 7.2701 0 0 1 521.6406 391.2211 Q 522.625 391.4907 523.3633 392.0766 A 4.1025 4.1025 0 0 1 524.4512 393.4081 A 4.8121 4.8121 0 0 1 524.5352 393.5766 A 4.3593 4.3593 0 0 1 524.8858 394.7088 A 6.0188 6.0188 0 0 1 524.9688 395.7329 A 3.5566 3.5566 0 0 1 524.8779 396.5502 A 3.0309 3.0309 0 0 1 524.7109 397.0571 A 3.9588 3.9588 0 0 1 524.2677 397.8375 A 3.5229 3.5229 0 0 1 524.0547 398.1 A 3.7996 3.7996 0 0 1 523.1641 398.8383 Q 522.6719 399.1313 522.25 399.225 A 3.256 3.256 0 0 1 522.9025 399.3829 A 4.1876 4.1876 0 0 1 523.3633 399.5766 A 3.6118 3.6118 0 0 1 524.1765 400.1285 A 4.3369 4.3369 0 0 1 524.4297 400.3735 A 4.1076 4.1076 0 0 1 525.0289 401.1877 A 5.0308 5.0308 0 0 1 525.25 401.6274 A 3.7454 3.7454 0 0 1 525.5281 402.6099 A 4.9385 4.9385 0 0 1 525.5781 403.3266 A 6.7922 6.7922 0 0 1 525.5142 404.2834 Q 525.4419 404.7916 525.2875 405.2235 A 4.0005 4.0005 0 0 1 525.2383 405.354 A 5.3244 5.3244 0 0 1 524.8678 406.114 A 3.9936 3.9936 0 0 1 524.3828 406.7719 A 4.2687 4.2687 0 0 1 523.2227 407.6743 A 6.7116 6.7116 0 0 1 522.5087 408.001 A 5.4081 5.4081 0 0 1 521.9688 408.1782 Q 521.3796 408.3368 520.889 408.3859 A 4.8446 4.8446 0 0 1 520.8555 408.3891 Q 520.4401 408.4277 520.1761 408.4345 A 4.1265 4.1265 0 0 1 520.0703 408.436 Q 518.2205 408.436 517.1053 408.198 A 6.3642 6.3642 0 0 1 516.9648 408.1665 A 12.7653 12.7653 0 0 1 516.4397 408.031 Q 515.9392 407.8895 515.6251 407.7448 A 2.105 2.105 0 0 1 515.3828 407.6157 Z M 498.8108 669.9344 L 499.4436 667.9188 A 3.4784 3.4784 0 0 1 499.8421 668.1766 A 1.3329 1.3329 0 0 0 499.9904 668.2719 Q 500.1504 668.3615 500.3811 668.4461 Q 500.7327 668.575 501.3655 668.6571 A 7.8844 7.8844 0 0 0 501.8068 668.7003 Q 502.2672 668.7336 502.8913 668.7383 A 27.7921 27.7921 0 0 0 503.0999 668.7391 A 4.7229 4.7229 0 0 0 504.0199 668.6554 Q 504.5499 668.55 504.9561 668.3119 A 2.3562 2.3562 0 0 0 505.514 667.8602 A 3.045 3.045 0 0 0 506.2828 666.1303 A 4.0851 4.0851 0 0 0 506.3108 665.6454 A 3.653 3.653 0 0 0 506.1617 664.5802 A 3.0034 3.0034 0 0 0 505.5843 663.5125 A 2.3349 2.3349 0 0 0 504.3011 662.7387 A 3.632 3.632 0 0 0 503.4515 662.6454 L 501.0608 662.6454 L 501.0843 662.6454 L 501.0608 660.7469 L 502.6546 660.7469 A 23.4895 23.4895 0 0 0 503.6976 660.7235 A 2.4456 2.4456 0 0 0 504.6936 660.4657 A 1.6212 1.6212 0 0 0 505.2126 660.0479 A 2.2797 2.2797 0 0 0 505.4671 659.6688 A 2.0882 2.0882 0 0 0 505.6406 659.2239 Q 505.7633 658.7747 505.7712 658.1399 A 7.0867 7.0867 0 0 0 505.7718 658.0516 A 5.6907 5.6907 0 0 0 505.7387 657.4511 A 6.7869 6.7869 0 0 0 505.7015 657.161 A 1.7875 1.7875 0 0 0 505.3719 656.3691 A 2.1324 2.1324 0 0 0 505.3147 656.2938 Q 504.9983 655.8954 504.389 655.6493 Q 503.7922 655.4083 502.7458 655.4033 A 9.313 9.313 0 0 0 502.7015 655.4032 Q 501.6233 655.4032 500.9788 655.6024 Q 500.4853 655.7549 500.1773 655.8594 A 11.3421 11.3421 0 0 0 500.0061 655.9188 L 499.1858 653.8094 Q 499.5726 653.6966 500.0867 653.5728 A 34.3546 34.3546 0 0 1 500.5804 653.4579 A 5.9036 5.9036 0 0 1 501.1395 653.363 Q 501.8786 653.2704 502.9827 653.2704 A 8.0653 8.0653 0 0 1 504.6324 653.4349 A 7.2701 7.2701 0 0 1 505.0686 653.5399 Q 506.053 653.8094 506.7913 654.3954 A 4.1025 4.1025 0 0 1 507.8792 655.7268 A 4.8121 4.8121 0 0 1 507.9632 655.8954 A 4.3593 4.3593 0 0 1 508.3138 657.0275 A 6.0188 6.0188 0 0 1 508.3968 658.0516 A 3.5566 3.5566 0 0 1 508.3059 658.869 A 3.0309 3.0309 0 0 1 508.139 659.3758 A 3.9588 3.9588 0 0 1 507.6957 660.1563 A 3.5229 3.5229 0 0 1 507.4827 660.4188 A 3.7996 3.7996 0 0 1 506.5921 661.1571 Q 506.0999 661.45 505.678 661.5438 A 3.256 3.256 0 0 1 506.3306 661.7016 A 4.1876 4.1876 0 0 1 506.7913 661.8954 A 3.6118 3.6118 0 0 1 507.6045 662.4473 A 4.3369 4.3369 0 0 1 507.8577 662.6922 A 4.1076 4.1076 0 0 1 508.4569 663.5065 A 5.0308 5.0308 0 0 1 508.678 663.9461 A 3.7454 3.7454 0 0 1 508.9561 664.9286 A 4.9385 4.9385 0 0 1 509.0061 665.6454 A 6.7922 6.7922 0 0 1 508.9423 666.6021 Q 508.8699 667.1103 508.7155 667.5422 A 4.0005 4.0005 0 0 1 508.6663 667.6727 A 5.3244 5.3244 0 0 1 508.2958 668.4327 A 3.9936 3.9936 0 0 1 507.8108 669.0907 A 4.2687 4.2687 0 0 1 506.6507 669.993 A 6.7116 6.7116 0 0 1 505.9367 670.3197 A 5.4081 5.4081 0 0 1 505.3968 670.4969 Q 504.8076 670.6555 504.3171 670.7046 A 4.8446 4.8446 0 0 1 504.2835 670.7079 Q 503.8682 670.7465 503.6041 670.7533 A 4.1265 4.1265 0 0 1 503.4983 670.7547 Q 501.6485 670.7547 500.5333 670.5168 A 6.3642 6.3642 0 0 1 500.3929 670.4852 A 12.7653 12.7653 0 0 1 499.8677 670.3497 Q 499.3672 670.2082 499.0531 670.0636 A 2.105 2.105 0 0 1 498.8108 669.9344 Z M 958.5 404.8969 L 958.5 409.1625 A 9.936 9.936 0 0 1 955.7276 408.7297 A 8.7558 8.7558 0 0 1 954.1875 408.0844 A 11.7412 11.7412 0 0 1 951.1716 405.7977 A 11.1109 11.1109 0 0 1 950.9063 405.5063 A 10.8096 10.8096 0 0 1 948.8438 402.0141 Q 948.1406 400.0688 948.1406 398.1469 A 18.3077 18.3077 0 0 1 948.3054 395.6206 Q 948.4874 394.3157 948.8706 393.2119 A 10.1313 10.1313 0 0 1 949.1484 392.4985 A 13.8468 13.8468 0 0 1 950.2402 390.4486 A 10.4357 10.4357 0 0 1 951.6562 388.7016 Q 953.1563 387.225 954.9844 386.4985 A 13.6255 13.6255 0 0 1 956.9829 385.8696 A 10.8771 10.8771 0 0 1 958.5 385.6313 L 958.5 390.1782 A 6.2588 6.2588 0 0 0 954.5859 392.686 A 7.5765 7.5765 0 0 0 953.183 396.0893 A 10.1165 10.1165 0 0 0 953.0625 397.6782 A 9.1658 9.1658 0 0 0 953.3438 400.0026 A 7.0218 7.0218 0 0 0 954.5859 402.5532 A 5.9666 5.9666 0 0 0 958.5 404.8969 Z M 549.1094 396.6704 L 549.1094 398.7329 A 3.2765 3.2765 0 0 0 548.1909 398.9636 A 2.9999 2.9999 0 0 0 547.9141 399.0961 A 3.1838 3.1838 0 0 0 546.9766 399.8696 A 3.6353 3.6353 0 0 0 546.4541 400.7204 A 4.2758 4.2758 0 0 0 546.3437 400.9946 A 3.9444 3.9444 0 0 0 546.1176 402.1116 A 4.6197 4.6197 0 0 0 546.1094 402.3891 A 4.4765 4.4765 0 0 0 546.2056 403.332 A 3.8546 3.8546 0 0 0 546.3437 403.8188 A 4.0763 4.0763 0 0 0 546.7328 404.6266 A 3.5635 3.5635 0 0 0 546.9766 404.9672 Q 547.375 405.4594 547.9258 405.7758 A 3.0209 3.0209 0 0 0 549.1094 406.1625 L 549.1094 408.4594 Q 547.6797 408.3891 546.6133 407.85 Q 545.5469 407.311 544.832 406.3852 A 5.8449 5.8449 0 0 1 543.9288 404.6812 A 6.9437 6.9437 0 0 1 543.7891 404.2172 A 9.8271 9.8271 0 0 1 543.5071 402.573 A 12.1745 12.1745 0 0 1 543.4609 401.4985 Q 543.4609 399.2001 543.7714 397.4773 A 12.9006 12.9006 0 0 1 544.0234 396.354 A 13.4578 13.4578 0 0 1 544.4823 394.9633 Q 544.9173 393.8643 545.4883 393.1079 A 6.3348 6.3348 0 0 1 546.3027 392.2105 A 4.5441 4.5441 0 0 1 547.5039 391.4204 A 5.7792 5.7792 0 0 1 548.8909 390.9974 A 5.021 5.021 0 0 1 549.7187 390.9282 A 18.6941 18.6941 0 0 1 551.4137 391.0022 A 15.7738 15.7738 0 0 1 552.1914 391.0922 A 5.5737 5.5737 0 0 1 553.2044 391.3284 A 4.2275 4.2275 0 0 1 554.1719 391.7954 L 553.2813 393.7407 Q 552.625 393.3188 551.8281 393.2133 Q 551.1433 393.1227 550.2681 393.1099 A 20.0258 20.0258 0 0 0 549.9766 393.1079 A 3.6776 3.6776 0 0 0 549.1323 393.2006 A 2.8527 2.8527 0 0 0 548.3125 393.5297 A 3.5452 3.5452 0 0 0 547.1523 394.6547 Q 546.6953 395.3579 546.4609 396.2719 A 7.6135 7.6135 0 0 0 546.2266 398.1704 Q 546.2456 398.1513 546.2955 398.1478 A 0.3477 0.3477 0 0 1 546.3203 398.1469 A 0.331 0.331 0 0 0 546.3507 398.1456 Q 546.3805 398.1429 546.3985 398.1342 A 0.0566 0.0566 0 0 0 546.4141 398.1235 Q 546.6719 397.6079 547.3984 397.1977 A 4.0867 4.0867 0 0 1 548.3521 396.8139 A 5.363 5.363 0 0 1 549.1094 396.6704 Z M 435.5234 436.6704 L 435.5234 438.7329 A 3.2765 3.2765 0 0 0 434.605 438.9636 A 2.9999 2.9999 0 0 0 434.3281 439.0961 A 3.1838 3.1838 0 0 0 433.3906 439.8696 A 3.6353 3.6353 0 0 0 432.8682 440.7204 A 4.2758 4.2758 0 0 0 432.7578 440.9946 A 3.9444 3.9444 0 0 0 432.5317 442.1116 A 4.6197 4.6197 0 0 0 432.5234 442.3891 A 4.4765 4.4765 0 0 0 432.6196 443.332 A 3.8546 3.8546 0 0 0 432.7578 443.8188 A 4.0763 4.0763 0 0 0 433.1468 444.6266 A 3.5635 3.5635 0 0 0 433.3906 444.9672 Q 433.7891 445.4594 434.3398 445.7758 A 3.0209 3.0209 0 0 0 435.5234 446.1625 L 435.5234 448.4594 Q 434.0938 448.3891 433.0273 447.85 Q 431.9609 447.311 431.2461 446.3852 A 5.8449 5.8449 0 0 1 430.3429 444.6812 A 6.9437 6.9437 0 0 1 430.2031 444.2172 A 9.8271 9.8271 0 0 1 429.9211 442.573 A 12.1745 12.1745 0 0 1 429.875 441.4985 Q 429.875 439.2001 430.1855 437.4773 A 12.9006 12.9006 0 0 1 430.4375 436.354 A 13.4578 13.4578 0 0 1 430.8964 434.9633 Q 431.3313 433.8643 431.9023 433.1079 A 6.3348 6.3348 0 0 1 432.7167 432.2105 A 4.5441 4.5441 0 0 1 433.918 431.4204 A 5.7792 5.7792 0 0 1 435.305 430.9974 A 5.021 5.021 0 0 1 436.1328 430.9282 A 18.6941 18.6941 0 0 1 437.8277 431.0022 A 15.7738 15.7738 0 0 1 438.6055 431.0922 A 5.5737 5.5737 0 0 1 439.6184 431.3284 A 4.2275 4.2275 0 0 1 440.5859 431.7954 L 439.6953 433.7407 Q 439.0391 433.3188 438.2422 433.2133 Q 437.5574 433.1227 436.6822 433.1099 A 20.0258 20.0258 0 0 0 436.3906 433.1079 A 3.6776 3.6776 0 0 0 435.5464 433.2006 A 2.8527 2.8527 0 0 0 434.7266 433.5297 A 3.5452 3.5452 0 0 0 433.5664 434.6547 Q 433.1094 435.3579 432.875 436.2719 A 7.6135 7.6135 0 0 0 432.6406 438.1704 Q 432.6597 438.1513 432.7096 438.1478 A 0.3477 0.3477 0 0 1 432.7344 438.1469 A 0.331 0.331 0 0 0 432.7648 438.1456 Q 432.7946 438.1429 432.8125 438.1342 A 0.0566 0.0566 0 0 0 432.8281 438.1235 Q 433.0859 437.6079 433.8125 437.1977 A 4.0867 4.0867 0 0 1 434.7662 436.8139 A 5.363 5.363 0 0 1 435.5234 436.6704 Z M 457.2561 653.3641 L 458.6858 653.3641 A 11.6547 11.6547 0 0 1 460.6134 653.516 A 8.6045 8.6045 0 0 1 462.5179 654.0555 A 8.6766 8.6766 0 0 1 464.1988 654.9779 A 7.2204 7.2204 0 0 1 465.2601 655.8954 Q 466.3499 657.0438 466.889 658.5086 A 8.6549 8.6549 0 0 1 467.428 661.5204 A 16.8613 16.8613 0 0 1 467.3638 663.0326 Q 467.2918 663.8304 467.1392 664.5187 A 8.8529 8.8529 0 0 1 466.971 665.1649 A 11.1753 11.1753 0 0 1 466.524 666.3934 Q 466.256 667.0087 465.9325 667.5131 A 6.5492 6.5492 0 0 1 465.8108 667.6961 A 6.7378 6.7378 0 0 1 465.039 668.6322 A 5.2865 5.2865 0 0 1 464.2288 669.3016 A 9.0956 9.0956 0 0 1 463.3645 669.8143 A 6.7964 6.7964 0 0 1 462.5296 670.1805 Q 461.7093 670.4735 461.0296 670.5555 A 19.436 19.436 0 0 1 460.7117 670.5914 Q 460.2679 670.6375 460.0218 670.6375 L 457.2561 670.6375 L 457.2561 668.575 L 459.0843 668.575 Q 461.1426 668.575 462.3751 667.6277 A 3.9072 3.9072 0 0 0 463.2093 666.7469 A 6.1501 6.1501 0 0 0 464.0049 665.0684 Q 464.2546 664.2691 464.3716 663.2978 A 15.4827 15.4827 0 0 0 464.4749 661.45 A 8.9505 8.9505 0 0 0 464.2171 659.3172 A 4.5427 4.5427 0 0 0 463.221 657.4071 A 4.6666 4.6666 0 0 0 462.1748 656.5172 A 6.3542 6.3542 0 0 0 461.2171 656.0243 Q 459.9515 655.4969 457.9358 655.4969 L 457.2561 655.4969 L 457.2561 653.3641 Z M 749.625 317.5219 L 753.5625 324.3188 L 750.5859 324.3188 L 747.3281 318.061 A 0.9708 0.9708 0 0 0 747.2453 318.0647 A 1.2422 1.2422 0 0 0 747.1758 318.0727 Q 747.0938 318.0844 746.9297 318.0844 L 746.4492 318.0844 L 745.6172 318.0844 L 745.6172 316.0219 L 747.2109 316.0219 Q 747.7266 316.0219 748.2422 315.8461 A 2.5411 2.5411 0 0 0 749.1266 315.3209 A 2.9368 2.9368 0 0 0 749.1797 315.2719 Q 749.6016 314.8735 749.8594 314.1586 Q 750.1172 313.4438 750.1172 312.3891 Q 750.1172 311.9672 750 311.4165 A 2.7004 2.7004 0 0 0 749.657 310.5684 A 3.2338 3.2338 0 0 0 749.5195 310.3618 A 2.5622 2.5622 0 0 0 748.9553 309.7991 A 3.4003 3.4003 0 0 0 748.5 309.518 Q 747.8438 309.1782 746.7656 309.1782 L 745.6172 309.1782 L 745.6172 307.0454 L 746.8125 307.0454 A 6.9912 6.9912 0 0 1 748.9922 307.3969 A 5.8929 5.8929 0 0 1 750.9258 308.4516 A 5.516 5.516 0 0 1 752.3086 310.1508 A 4.5686 4.5686 0 0 1 752.8174 311.9319 A 5.5476 5.5476 0 0 1 752.8359 312.3891 A 6.7474 6.7474 0 0 1 752.67 313.9221 A 5.052 5.052 0 0 1 751.9687 315.5766 A 5.1991 5.1991 0 0 1 749.625 317.5219 Z M 40.9688 408.975 L 62.8594 408.975 L 62.8594 413.7563 L 40.9688 413.7563 L 40.9688 408.975 Z M 839.7188 408.975 L 861.6094 408.975 L 861.6094 413.7563 L 839.7188 413.7563 L 839.7188 408.975 Z M 40.9688 399.5063 L 62.8594 399.5063 L 62.8594 404.2407 L 40.9688 404.2407 L 40.9688 399.5063 Z M 839.7188 399.5063 L 861.6094 399.5063 L 861.6094 404.2407 L 839.7188 404.2407 L 839.7188 399.5063 Z M 765.5391 444.9516 L 765.5391 447.225 A 3.0753 3.0753 0 0 0 764.8325 447.4167 A 2.2969 2.2969 0 0 0 764.0742 447.9165 Q 763.5372 448.4535 763.5238 449.4029 A 3.4609 3.4609 0 0 0 763.5234 449.4516 Q 763.5234 450.0844 764.0977 450.6 Q 764.5911 451.0432 765.301 451.469 A 11.4453 11.4453 0 0 0 765.5391 451.6079 L 765.5391 454.4438 L 765.1641 454.2329 A 23.723 23.723 0 0 0 764.8447 454.5083 A 32.2063 32.2063 0 0 0 764.4961 454.8188 Q 764.1328 455.1469 763.8281 455.5688 A 4.4492 4.4492 0 0 0 763.448 456.2043 A 5.3109 5.3109 0 0 0 763.3008 456.5297 A 2.9768 2.9768 0 0 0 763.0836 457.5061 A 3.4782 3.4782 0 0 0 763.0781 457.7016 Q 763.0781 458.686 763.7695 459.3891 A 3.0703 3.0703 0 0 0 765.1799 460.2001 A 3.9038 3.9038 0 0 0 765.5391 460.2797 L 765.5391 462.5063 A 8.1131 8.1131 0 0 1 764.0572 462.2901 Q 762.7154 461.9563 761.8594 461.1469 A 4.0358 4.0358 0 0 1 760.6509 458.831 A 5.8168 5.8168 0 0 1 760.5703 457.8422 A 6.1626 6.1626 0 0 1 760.7129 456.4828 A 4.485 4.485 0 0 1 761.3789 454.9243 A 4.9781 4.9781 0 0 1 763.5 453.1547 A 8.3608 8.3608 0 0 1 762.2147 452.0195 A 7.3854 7.3854 0 0 1 761.8008 451.5258 A 3.3532 3.3532 0 0 1 761.1124 449.5652 A 4.1887 4.1887 0 0 1 761.1094 449.4047 A 4.9502 4.9502 0 0 1 761.2079 448.397 A 3.9654 3.9654 0 0 1 761.4609 447.6 A 4.3257 4.3257 0 0 1 762.1367 446.5172 A 3.986 3.986 0 0 1 762.3984 446.2407 A 4.1505 4.1505 0 0 1 763.6433 445.4233 A 4.7699 4.7699 0 0 1 763.793 445.3618 Q 764.6016 445.0454 765.5391 444.9516 Z M 766.5 462.5297 L 766.5 460.3032 A 2.9606 2.9606 0 0 0 767.103 460.1897 A 2.4997 2.4997 0 0 0 767.4727 460.0454 A 2.9561 2.9561 0 0 0 768.1929 459.5572 A 2.7885 2.7885 0 0 0 768.2344 459.518 A 2.6273 2.6273 0 0 0 768.6334 459.0329 A 2.3481 2.3481 0 0 0 768.75 458.8266 Q 768.9375 458.4516 768.9375 458.0532 A 2.2367 2.2367 0 0 0 768.33 456.5139 A 2.964 2.964 0 0 0 768.2227 456.4008 A 8.7797 8.7797 0 0 0 767.3258 455.6226 A 11.2408 11.2408 0 0 0 766.5 455.0532 L 766.5 452.1469 Q 766.5846 452.2104 766.7457 452.293 A 3.926 3.926 0 0 0 766.7813 452.311 A 6.8458 6.8458 0 0 0 767.6929 451.3701 A 7.8905 7.8905 0 0 0 767.9063 451.0922 A 2.6527 2.6527 0 0 0 768.3972 449.8219 A 3.4375 3.4375 0 0 0 768.4219 449.4047 Q 768.4219 448.2719 767.9359 447.7871 A 1.1572 1.1572 0 0 0 767.8594 447.7172 A 2.2246 2.2246 0 0 0 766.6956 447.2199 A 2.7944 2.7944 0 0 0 766.5 447.2016 L 766.5 444.9282 Q 767.6719 444.975 768.4922 445.35 A 4.0017 4.0017 0 0 1 769.3388 445.8659 A 3.4026 3.4026 0 0 1 769.8281 446.3461 A 3.9592 3.9592 0 0 1 770.5781 447.7407 Q 770.8125 448.5141 770.8125 449.3579 A 2.7754 2.7754 0 0 1 770.5898 450.4477 A 5.2841 5.2841 0 0 1 770.0375 451.4364 A 5.8265 5.8265 0 0 1 770.0156 451.4672 Q 769.6641 451.9594 769.207 452.4047 A 17.4305 17.4305 0 0 1 768.5281 453.0332 A 15.1822 15.1822 0 0 1 768.3047 453.225 A 13.4073 13.4073 0 0 1 769.5117 454.0805 A 6.1485 6.1485 0 0 1 770.5195 455.0883 Q 770.9531 455.6391 771.2109 456.2954 A 3.7683 3.7683 0 0 1 771.4593 457.4333 A 4.4497 4.4497 0 0 1 771.4688 457.725 A 5.027 5.027 0 0 1 771.3427 458.8712 A 4.1932 4.1932 0 0 1 771.0703 459.6704 A 4.4545 4.4545 0 0 1 769.9922 461.1469 A 5.2868 5.2868 0 0 1 768.529 462.0702 A 6.0062 6.0062 0 0 1 768.4102 462.1196 A 5.798 5.798 0 0 1 766.5 462.5297 Z M 813.7266 323.2641 L 813.7266 320.9204 Q 813.9521 321.0654 814.2608 321.227 A 11.8984 11.8984 0 0 0 814.5586 321.3774 A 14.7478 14.7478 0 0 0 815.4161 321.7618 A 16.5253 16.5253 0 0 0 815.625 321.8461 A 8.0266 8.0266 0 0 0 816.8086 322.2094 A 5.9351 5.9351 0 0 0 817.4454 322.3192 A 4.6171 4.6171 0 0 0 817.9687 322.35 A 5.4402 5.4402 0 0 0 819.0711 322.2451 Q 819.7379 322.1071 820.2519 321.7875 A 3.0427 3.0427 0 0 0 820.6875 321.4594 A 2.7704 2.7704 0 0 0 821.452 320.2529 Q 821.6032 319.7988 821.6504 319.2432 A 6.2108 6.2108 0 0 0 821.6719 318.7172 Q 821.6719 317.3813 820.8164 316.6079 A 2.9299 2.9299 0 0 0 819.3909 315.91 A 4.1727 4.1727 0 0 0 818.5781 315.8344 A 6.82 6.82 0 0 0 817.6875 315.893 A 5.6801 5.6801 0 0 0 816.9956 316.0267 A 5.0665 5.0665 0 0 0 816.8437 316.0688 L 817.125 313.7485 A 7.3868 7.3868 0 0 1 817.8451 313.6424 A 8.5986 8.5986 0 0 1 818.1211 313.6196 A 24.8896 24.8896 0 0 1 818.3694 313.6042 Q 818.6369 313.5891 818.8232 313.5855 A 5.6134 5.6134 0 0 1 818.9297 313.5844 A 5.8839 5.8839 0 0 1 820.1891 313.7141 A 4.8023 4.8023 0 0 1 821.1211 314.018 A 5.1572 5.1572 0 0 1 822.4562 314.8692 A 4.7768 4.7768 0 0 1 822.7734 315.1782 A 5.0197 5.0197 0 0 1 823.8047 316.8188 A 5.2439 5.2439 0 0 1 824.1562 318.7172 A 9.5259 9.5259 0 0 1 824.0881 319.8939 Q 824.014 320.488 823.8593 320.982 A 4.2224 4.2224 0 0 1 823.5234 321.7758 A 5.5321 5.5321 0 0 1 822.8658 322.7231 A 4.2555 4.2555 0 0 1 821.9648 323.5102 Q 821.0391 324.1079 820.0313 324.2719 Q 819.2596 324.3975 818.6529 324.427 A 7.3558 7.3558 0 0 1 818.2969 324.436 A 8.9006 8.9006 0 0 1 817.0484 324.3509 A 7.9671 7.9671 0 0 1 816.7734 324.3071 A 10.4001 10.4001 0 0 1 815.9968 324.1398 A 8.199 8.199 0 0 1 815.4492 323.979 Q 814.9356 323.8078 814.5345 323.6365 A 8.1202 8.1202 0 0 1 814.4063 323.5805 Q 813.9609 323.3813 813.7266 323.2641 Z M 415.9297 447.2641 L 415.9297 444.9204 Q 416.1553 445.0654 416.4639 445.227 A 11.8984 11.8984 0 0 0 416.7617 445.3774 A 14.7478 14.7478 0 0 0 417.6192 445.7618 A 16.5253 16.5253 0 0 0 417.8281 445.8461 A 8.0266 8.0266 0 0 0 419.0117 446.2094 A 5.9351 5.9351 0 0 0 419.6485 446.3192 A 4.6171 4.6171 0 0 0 420.1719 446.35 A 5.4402 5.4402 0 0 0 421.2742 446.2451 Q 421.941 446.1071 422.455 445.7875 A 3.0427 3.0427 0 0 0 422.8906 445.4594 A 2.7704 2.7704 0 0 0 423.6551 444.2529 Q 423.8063 443.7988 423.8535 443.2432 A 6.2108 6.2108 0 0 0 423.875 442.7172 Q 423.875 441.3813 423.0195 440.6079 A 2.9299 2.9299 0 0 0 421.594 439.91 A 4.1727 4.1727 0 0 0 420.7812 439.8344 A 6.82 6.82 0 0 0 419.8906 439.893 A 5.6801 5.6801 0 0 0 419.1987 440.0267 A 5.0665 5.0665 0 0 0 419.0469 440.0688 L 419.3281 437.7485 A 7.3868 7.3868 0 0 1 420.0482 437.6424 A 8.5986 8.5986 0 0 1 420.3242 437.6196 A 24.8896 24.8896 0 0 1 420.5725 437.6042 Q 420.84 437.5891 421.0263 437.5855 A 5.6134 5.6134 0 0 1 421.1328 437.5844 A 5.8839 5.8839 0 0 1 422.3922 437.7141 A 4.8023 4.8023 0 0 1 423.3242 438.018 A 5.1572 5.1572 0 0 1 424.6594 438.8692 A 4.7768 4.7768 0 0 1 424.9766 439.1782 A 5.0197 5.0197 0 0 1 426.0078 440.8188 A 5.2439 5.2439 0 0 1 426.3594 442.7172 A 9.5259 9.5259 0 0 1 426.2912 443.8939 Q 426.2171 444.488 426.0624 444.982 A 4.2224 4.2224 0 0 1 425.7266 445.7758 A 5.5321 5.5321 0 0 1 425.0689 446.7231 A 4.2555 4.2555 0 0 1 424.168 447.5102 Q 423.2422 448.1079 422.2344 448.2719 Q 421.4628 448.3975 420.856 448.427 A 7.3558 7.3558 0 0 1 420.5 448.436 A 8.9006 8.9006 0 0 1 419.2515 448.3509 A 7.9671 7.9671 0 0 1 418.9766 448.3071 A 10.4001 10.4001 0 0 1 418.2 448.1398 A 8.199 8.199 0 0 1 417.6523 447.979 Q 417.1387 447.8078 416.7376 447.6365 A 8.1202 8.1202 0 0 1 416.6094 447.5805 Q 416.1641 447.3813 415.9297 447.2641 Z M 381.2656 431.0454 L 384.4766 431.0454 L 379.8125 439.9282 L 384.1953 448.3188 L 380.9375 448.3188 L 378.4531 442.3891 L 378.4531 437.0454 L 381.2656 431.0454 Z M 376.1328 439.9282 L 371.4688 431.0454 L 374.6797 431.0454 L 377.4922 437.5141 L 377.4922 442.8813 L 375.0078 448.3188 L 371.75 448.3188 L 376.1328 439.9282 Z M 521.9671 657.4188 L 523.2561 654.7 A 6.0563 6.0563 0 0 1 524.4257 656.2365 A 8.2136 8.2136 0 0 1 525.0022 657.5829 Q 525.5999 659.3875 525.5999 661.9188 Q 525.5999 664.0985 525.1429 665.7625 Q 524.6858 667.4266 523.8186 668.5282 A 5.6365 5.6365 0 0 1 521.7327 670.1922 A 6.0802 6.0802 0 0 1 519.9469 670.6942 A 7.6999 7.6999 0 0 1 518.9671 670.7547 A 7.1943 7.1943 0 0 1 517.3507 670.5803 A 5.8004 5.8004 0 0 1 516.014 670.0985 L 517.0686 667.8719 A 2.6046 2.6046 0 0 0 518.2753 668.4061 A 3.5865 3.5865 0 0 0 518.8968 668.4579 A 3.8464 3.8464 0 0 0 519.9212 668.3251 A 3.3911 3.3911 0 0 0 520.4788 668.118 A 2.7312 2.7312 0 0 0 521.374 667.4257 A 3.5673 3.5673 0 0 0 521.6858 667.0047 A 4.5954 4.5954 0 0 0 522.049 666.297 Q 522.2875 665.7219 522.4476 664.9774 A 11.3795 11.3795 0 0 0 522.6151 663.9595 Q 522.6843 663.389 522.716 662.7345 A 23.0841 23.0841 0 0 0 522.7405 661.9188 A 21.7184 21.7184 0 0 0 522.6901 660.7191 Q 522.6499 660.1565 522.5797 659.6624 A 11.8618 11.8618 0 0 0 522.5296 659.3407 A 9.7185 9.7185 0 0 0 522.3422 658.4696 Q 522.1938 657.9128 521.9905 657.4657 A 0.1057 0.1057 0 0 1 521.9784 657.4514 Q 521.9671 657.4351 521.9671 657.4188 Z M 538.6546 657.4188 L 539.9436 654.7 A 6.0563 6.0563 0 0 1 541.1132 656.2365 A 8.2136 8.2136 0 0 1 541.6897 657.5829 Q 542.2874 659.3875 542.2874 661.9188 Q 542.2874 664.0985 541.8304 665.7625 Q 541.3733 667.4266 540.5061 668.5282 A 5.6365 5.6365 0 0 1 538.4202 670.1922 A 6.0802 6.0802 0 0 1 536.6344 670.6942 A 7.6999 7.6999 0 0 1 535.6546 670.7547 A 7.1943 7.1943 0 0 1 534.0382 670.5803 A 5.8004 5.8004 0 0 1 532.7015 670.0985 L 533.7561 667.8719 A 2.6046 2.6046 0 0 0 534.9628 668.4061 A 3.5865 3.5865 0 0 0 535.5843 668.4579 A 3.8464 3.8464 0 0 0 536.6087 668.3251 A 3.3911 3.3911 0 0 0 537.1663 668.118 A 2.7312 2.7312 0 0 0 538.0615 667.4257 A 3.5673 3.5673 0 0 0 538.3733 667.0047 A 4.5954 4.5954 0 0 0 538.7365 666.297 Q 538.975 665.7219 539.1351 664.9774 A 11.3795 11.3795 0 0 0 539.3026 663.9595 Q 539.3718 663.389 539.4035 662.7345 A 23.0841 23.0841 0 0 0 539.428 661.9188 A 21.7184 21.7184 0 0 0 539.3776 660.7191 Q 539.3374 660.1565 539.2672 659.6624 A 11.8618 11.8618 0 0 0 539.2171 659.3407 A 9.7185 9.7185 0 0 0 539.0297 658.4696 Q 538.8813 657.9128 538.678 657.4657 A 0.1057 0.1057 0 0 1 538.6659 657.4514 Q 538.6546 657.4351 538.6546 657.4188 Z M 538.4219 391.0454 L 538.4219 402.061 L 540.2266 402.061 L 540.2266 404.2875 L 538.4219 404.2875 L 538.4219 408.3188 L 535.5625 408.3188 L 535.5625 391.0454 L 538.4219 391.0454 Z M 784.3359 445.0454 L 784.3359 456.061 L 786.1406 456.061 L 786.1406 458.2875 L 784.3359 458.2875 L 784.3359 462.3188 L 781.4766 462.3188 L 781.4766 445.0454 L 784.3359 445.0454 Z M 515.8968 666.325 L 514.6077 669.0672 A 6.5078 6.5078 0 0 1 513.5071 667.5353 A 8.8126 8.8126 0 0 1 512.9436 666.1961 Q 512.4504 664.7065 512.3724 662.6938 A 20.0114 20.0114 0 0 1 512.3577 661.9188 A 17.7226 17.7226 0 0 1 512.4452 660.1125 Q 512.5401 659.1875 512.7379 658.3813 A 10.4236 10.4236 0 0 1 512.8147 658.0868 A 9.371 9.371 0 0 1 513.3207 656.6805 A 6.8124 6.8124 0 0 1 514.1272 655.3329 A 5.622 5.622 0 0 1 516.2132 653.6571 A 6.1498 6.1498 0 0 1 518.2233 653.1188 A 7.5442 7.5442 0 0 1 518.9671 653.0829 A 7.2884 7.2884 0 0 1 520.3957 653.2167 A 5.5699 5.5699 0 0 1 521.803 653.6922 L 520.7718 655.8954 Q 519.9983 655.4032 519.0374 655.4032 Q 518.1702 655.4032 517.4671 655.7313 Q 516.764 656.0594 516.2718 656.8446 A 4.8497 4.8497 0 0 0 515.8868 657.6114 Q 515.7327 657.9943 515.6124 658.4465 A 9.4472 9.4472 0 0 0 515.5101 658.8719 A 11.1406 11.1406 0 0 0 515.3425 659.8827 Q 515.2317 660.7909 515.2171 661.9188 A 24.0353 24.0353 0 0 0 515.2645 663.107 Q 515.3033 663.6948 515.3715 664.214 A 13.8157 13.8157 0 0 0 515.4046 664.45 A 9.9037 9.9037 0 0 0 515.5722 665.3211 Q 515.6734 665.7387 515.8054 666.0946 A 5.3782 5.3782 0 0 0 515.8968 666.325 Z M 532.5843 666.325 L 531.2952 669.0672 A 6.5078 6.5078 0 0 1 530.1946 667.5353 A 8.8126 8.8126 0 0 1 529.6311 666.1961 Q 529.1379 664.7065 529.0599 662.6938 A 20.0114 20.0114 0 0 1 529.0452 661.9188 A 17.7226 17.7226 0 0 1 529.1327 660.1125 Q 529.2276 659.1875 529.4254 658.3813 A 10.4236 10.4236 0 0 1 529.5022 658.0868 A 9.371 9.371 0 0 1 530.0082 656.6805 A 6.8124 6.8124 0 0 1 530.8147 655.3329 A 5.622 5.622 0 0 1 532.9007 653.6571 A 6.1498 6.1498 0 0 1 534.9108 653.1188 A 7.5442 7.5442 0 0 1 535.6546 653.0829 A 7.2884 7.2884 0 0 1 537.0832 653.2167 A 5.5699 5.5699 0 0 1 538.4905 653.6922 L 537.4593 655.8954 Q 536.6858 655.4032 535.7249 655.4032 Q 534.8577 655.4032 534.1546 655.7313 Q 533.4515 656.0594 532.9593 656.8446 A 4.8497 4.8497 0 0 0 532.5743 657.6114 Q 532.4202 657.9943 532.2999 658.4465 A 9.4472 9.4472 0 0 0 532.1976 658.8719 A 11.1406 11.1406 0 0 0 532.03 659.8827 Q 531.9192 660.7909 531.9046 661.9188 A 24.0353 24.0353 0 0 0 531.952 663.107 Q 531.9908 663.6948 532.059 664.214 A 13.8157 13.8157 0 0 0 532.0921 664.45 A 9.9037 9.9037 0 0 0 532.2597 665.3211 Q 532.3609 665.7387 532.4929 666.0946 A 5.3782 5.3782 0 0 0 532.5843 666.325 Z M 721.875 456.5532 L 726.6563 445.0454 L 729.8672 445.0454 L 724.7344 455.2875 L 724.7344 462.3188 L 721.875 462.3188 L 721.875 456.5532 Z M 741.8438 324.3188 L 741.8438 307.0454 L 744.6563 307.0454 L 744.6563 324.3188 L 741.8438 324.3188 Z M 453.4827 670.6375 L 453.4827 653.3641 L 456.2952 653.3641 L 456.2952 670.6375 L 453.4827 670.6375 Z M 534.6016 404.2875 L 528.0859 404.2875 L 528.0859 402.061 L 534.6016 392.4516 L 534.6016 395.8032 L 530.5938 402.061 L 534.6016 402.061 L 534.6016 404.2875 Z M 780.5156 458.2875 L 774 458.2875 L 774 456.061 L 780.5156 446.4516 L 780.5156 449.8032 L 776.5078 456.061 L 780.5156 456.061 L 780.5156 458.2875 Z M 815.9297 315.7407 L 815.8125 316.6782 L 813.6094 316.6782 A 2.6087 2.6087 0 0 1 813.6119 316.5723 Q 813.6184 316.4173 813.6409 316.1495 A 26.4372 26.4372 0 0 1 813.6562 315.975 A 124.5588 124.5588 0 0 1 813.6947 315.5603 Q 813.7121 315.3758 813.7318 315.1719 A 235.9617 235.9617 0 0 1 813.7734 314.7446 Q 813.8438 314.0297 813.9375 313.186 Q 814.0313 312.3422 814.125 311.475 A 399.7107 399.7107 0 0 1 814.377 309.3598 A 524.5995 524.5995 0 0 1 814.6641 307.0454 L 823.2188 307.0454 L 823.2188 309.3422 L 816.7734 309.3422 Q 816.5391 311.0766 816.3984 312.0375 A 155.9377 155.9377 0 0 0 816.3333 312.4873 Q 816.2432 313.1157 816.1992 313.4672 A 244.2685 244.2685 0 0 0 816.1789 313.6302 Q 816.1384 313.9558 816.1289 314.0415 A 6.9162 6.9162 0 0 0 816.1249 314.0781 Q 816.1178 314.1455 816.1172 314.167 A 0.1289 0.1289 0 0 0 816.1172 314.1704 L 815.9297 315.7407 Z M 418.1328 439.7407 L 418.0156 440.6782 L 415.8125 440.6782 A 2.6087 2.6087 0 0 1 415.8151 440.5723 Q 415.8215 440.4173 415.8441 440.1495 A 26.4372 26.4372 0 0 1 415.8594 439.975 A 124.5588 124.5588 0 0 1 415.8978 439.5603 Q 415.9152 439.3758 415.9349 439.1719 A 235.9617 235.9617 0 0 1 415.9766 438.7446 Q 416.0469 438.0297 416.1406 437.186 Q 416.2344 436.3422 416.3281 435.475 A 399.7107 399.7107 0 0 1 416.5801 433.3598 A 524.5995 524.5995 0 0 1 416.8672 431.0454 L 425.4219 431.0454 L 425.4219 433.3422 L 418.9766 433.3422 Q 418.7422 435.0766 418.6016 436.0375 A 155.9377 155.9377 0 0 0 418.5364 436.4873 Q 418.4463 437.1157 418.4023 437.4672 A 244.2685 244.2685 0 0 0 418.382 437.6302 Q 418.3416 437.9558 418.332 438.0415 A 6.9162 6.9162 0 0 0 418.328 438.0781 Q 418.3209 438.1455 418.3204 438.167 A 0.1289 0.1289 0 0 0 418.3203 438.1704 L 418.1328 439.7407 Z M 550.0703 398.7563 L 550.0703 396.6235 A 5.1524 5.1524 0 0 1 551.5819 396.904 A 4.6754 4.6754 0 0 1 552.2031 397.1743 A 5.5604 5.5604 0 0 1 553.8437 398.4633 A 5.5427 5.5427 0 0 1 554.875 400.2211 A 5.8002 5.8002 0 0 1 555.2085 401.7187 A 5.2907 5.2907 0 0 1 555.2266 402.1547 A 9.6022 9.6022 0 0 1 555.1488 403.4122 Q 555.063 404.0604 554.8828 404.6095 A 5.2272 5.2272 0 0 1 554.7461 404.979 A 6.1511 6.1511 0 0 1 554.2022 406.0159 A 4.7427 4.7427 0 0 1 553.4922 406.8657 A 5.6481 5.6481 0 0 1 552.2117 407.7793 A 5.1791 5.1791 0 0 1 551.8047 407.9672 A 7.5195 7.5195 0 0 1 550.9141 408.2719 A 5.7288 5.7288 0 0 1 550.0703 408.436 L 550.0703 406.1391 A 3.097 3.097 0 0 0 551.9316 404.9791 A 3.9728 3.9728 0 0 0 552.0039 404.8852 A 3.7882 3.7882 0 0 0 552.7054 403.1835 A 5.0582 5.0582 0 0 0 552.7656 402.3891 A 4.5269 4.5269 0 0 0 552.6221 401.2234 A 3.5359 3.5359 0 0 0 552.0156 399.975 Q 551.2656 398.9907 550.0703 398.7563 Z M 436.4844 438.7563 L 436.4844 436.6235 A 5.1524 5.1524 0 0 1 437.996 436.904 A 4.6754 4.6754 0 0 1 438.6172 437.1743 A 5.5604 5.5604 0 0 1 440.2578 438.4633 A 5.5427 5.5427 0 0 1 441.2891 440.2211 A 5.8002 5.8002 0 0 1 441.6226 441.7187 A 5.2907 5.2907 0 0 1 441.6406 442.1547 A 9.6022 9.6022 0 0 1 441.5628 443.4122 Q 441.4771 444.0604 441.2968 444.6095 A 5.2272 5.2272 0 0 1 441.1602 444.979 A 6.1511 6.1511 0 0 1 440.6162 446.0159 A 4.7427 4.7427 0 0 1 439.9062 446.8657 A 5.6481 5.6481 0 0 1 438.6257 447.7793 A 5.1791 5.1791 0 0 1 438.2187 447.9672 A 7.5195 7.5195 0 0 1 437.3281 448.2719 A 5.7288 5.7288 0 0 1 436.4844 448.436 L 436.4844 446.1391 A 3.097 3.097 0 0 0 438.3457 444.9791 A 3.9728 3.9728 0 0 0 438.418 444.8852 A 3.7882 3.7882 0 0 0 439.1194 443.1835 A 5.0582 5.0582 0 0 0 439.1797 442.3891 A 4.5269 4.5269 0 0 0 439.0361 441.2234 A 3.5359 3.5359 0 0 0 438.4297 439.975 Q 437.6797 438.9907 436.4844 438.7563 Z M 494.2891 402.6469 L 505.2344 402.6469 L 505.2344 405.0375 L 494.2891 405.0375 L 494.2891 402.6469 Z M 763.6406 318.6469 L 774.5859 318.6469 L 774.5859 321.0375 L 763.6406 321.0375 L 763.6406 318.6469 Z M 739.5234 456.6469 L 750.4688 456.6469 L 750.4688 459.0375 L 739.5234 459.0375 L 739.5234 456.6469 Z M 394.625 442.6469 L 405.5703 442.6469 L 405.5703 445.0375 L 394.625 445.0375 L 394.625 442.6469 Z M 477.7171 664.9657 L 488.6624 664.9657 L 488.6624 667.3563 L 477.7171 667.3563 L 477.7171 664.9657 Z M 494.2891 397.9125 L 505.2344 397.9125 L 505.2344 400.2797 L 494.2891 400.2797 L 494.2891 397.9125 Z M 763.6406 313.9125 L 774.5859 313.9125 L 774.5859 316.2797 L 763.6406 316.2797 L 763.6406 313.9125 Z M 739.5234 451.9125 L 750.4688 451.9125 L 750.4688 454.2797 L 739.5234 454.2797 L 739.5234 451.9125 Z M 394.625 437.9125 L 405.5703 437.9125 L 405.5703 440.2797 L 394.625 440.2797 L 394.625 437.9125 Z M 477.7171 660.2313 L 488.6624 660.2313 L 488.6624 662.5985 L 477.7171 662.5985 L 477.7171 660.2313 Z M 717 445.0454 L 720.2109 445.0454 L 722.8125 451.7719 L 721.5469 454.8422 L 717 445.0454 Z M 142.4368 419.4911 A 3.2516 3.2516 0 0 0 143.3906 417.1313 A 3.9733 3.9733 0 0 0 143.3901 417.0656 A 3.1695 3.1695 0 0 0 142.4063 414.7641 A 3.3811 3.3811 0 0 0 141.5006 414.1243 A 3.399 3.399 0 0 0 140.0156 413.8032 A 3.2396 3.2396 0 0 0 137.6719 414.7641 A 3.2488 3.2488 0 0 0 136.9819 415.7264 A 3.3033 3.3033 0 0 0 136.6875 417.1313 A 3.2953 3.2953 0 0 0 137.6484 419.5219 A 3.2488 3.2488 0 0 0 138.6107 420.2119 A 3.3033 3.3033 0 0 0 140.0156 420.5063 A 3.9886 3.9886 0 0 0 140.0595 420.5061 A 3.2499 3.2499 0 0 0 142.4062 419.5219 A 3.869 3.869 0 0 0 142.4368 419.4911 Z M 942.4524 419.4911 A 3.2516 3.2516 0 0 0 943.4063 417.1313 A 3.9733 3.9733 0 0 0 943.4057 417.0656 A 3.1695 3.1695 0 0 0 942.4219 414.7641 A 3.3811 3.3811 0 0 0 941.5162 414.1243 A 3.399 3.399 0 0 0 940.0313 413.8032 A 3.2396 3.2396 0 0 0 937.6875 414.7641 A 3.2488 3.2488 0 0 0 936.9975 415.7264 A 3.3033 3.3033 0 0 0 936.7031 417.1313 A 3.2953 3.2953 0 0 0 937.6641 419.5219 A 3.2488 3.2488 0 0 0 938.6263 420.2119 A 3.3033 3.3033 0 0 0 940.0313 420.5063 A 3.9886 3.9886 0 0 0 940.0751 420.5061 A 3.2499 3.2499 0 0 0 942.4219 419.5219 A 3.869 3.869 0 0 0 942.4524 419.4911 Z" vector-effect="non-scaling-stroke"/></g></svg>